<?xml version="1.0" standalone="no"?><!DOCTYPE svg PUBLIC "-//W3C//DTD SVG 1.1//EN" "http://www.w3.org/Graphics/SVG/1.1/DTD/svg11.dtd"><svg t="1565243260162" class="icon" viewBox="0 0 1024 1024" version="1.1" xmlns="http://www.w3.org/2000/svg" p-id="4912" xmlns:xlink="http://www.w3.org/1999/xlink" width="128" height="128"><defs><style type="text/css"></style></defs><path d="M897.877333 960H126.08A62.165333 62.165333 0 0 1 64 897.834667v-222.933334a34.56 34.56 0 1 1 69.077333 0V870.4a20.608 20.608 0 0 0 20.608 20.565333H870.4a20.608 20.608 0 0 0 20.565333-20.565333v-195.413333a34.602667 34.602667 0 0 1 69.205334 0v222.933333a62.165333 62.165333 0 0 1-62.293334 62.08z m-384.896-165.504a34.645333 34.645333 0 0 1-34.602666-34.602667V182.016l-96.896 96.853333a34.432 34.432 0 0 1-48.810667 0 34.688 34.688 0 0 1 0-48.896l155.861333-155.861333a34.389333 34.389333 0 0 1 24.490667-10.112 34.773333 34.773333 0 0 1 24.576 10.112l155.776 155.904a34.56 34.56 0 1 1-48.810667 48.896l-96.938666-96.896v577.792a34.645333 34.645333 0 0 1-34.602667 34.602667z" p-id="4913"></path></svg>